HIERARCHY
ROOT Hips
{
	OFFSET -3.958830 18.904000 13.208200
	CHANNELS 6 Xposition Yposition Zposition Zrotation Yrotation Xrotation 
	JOINT LHipJoint
	{
		OFFSET 0.000000 0.000000 0.000000
		CHANNELS 3 Zrotation Yrotation Xrotation
		JOINT LeftUpLeg
		{
			OFFSET 1.800000 -1.400000 0.085000
			CHANNELS 3 Zrotation Yrotation Xrotation
			JOINT LeftLeg
			{
				OFFSET 2.215000 -6.000000 0.000000
				CHANNELS 3 Zrotation Yrotation Xrotation
				JOINT LeftFoot
				{
					OFFSET 2.500000 -6.900000 0.000000
					CHANNELS 3 Zrotation Yrotation Xrotation
					JOINT LeftToeBase
					{
						OFFSET 0.200000 -0.500000 1.950000
						CHANNELS 3 Zrotation Yrotation Xrotation
						End Site
						{
							OFFSET 0.000000 0.000000 0.000000
						}
					}
				}
			}
		}
	}
	JOINT RHipJoint
	{
		OFFSET 0.000000 0.000000 0.000000
		CHANNELS 3 Zrotation Yrotation Xrotation
		JOINT RightUpLeg
		{
			OFFSET -1.800000 -1.400000 0.085000
			CHANNELS 3 Zrotation Yrotation Xrotation
			JOINT RightLeg
			{
				OFFSET -2.215000 -6.000000 0.000000
				CHANNELS 3 Zrotation Yrotation Xrotation
				JOINT RightFoot
				{
					OFFSET -2.500000 -6.900000 0.000000
					CHANNELS 3 Zrotation Yrotation Xrotation
					JOINT RightToeBase
					{
						OFFSET -0.200000 -0.500000 1.950000
						CHANNELS 3 Zrotation Yrotation Xrotation
						End Site
						{
							OFFSET 0.000000 0.000000 0.000000
						}
					}
				}
			}
		}
	}
	JOINT LowerBack
	{
		OFFSET 0.000000 0.000000 0.000000
		CHANNELS 3 Zrotation Yrotation Xrotation
		JOINT Spine
		{
			OFFSET -0.087000 1.940000 -0.288900
			CHANNELS 3 Zrotation Yrotation Xrotation
			JOINT Spine1
			{
				OFFSET 0.000000 1.950000 0.060000
				CHANNELS 3 Zrotation Yrotation Xrotation
				JOINT Neck
				{
					OFFSET 0.000000 0.000000 0.000000
					CHANNELS 3 Zrotation Yrotation Xrotation
					JOINT Neck1
					{
						OFFSET 0.000000 1.600000 0.340000
						CHANNELS 3 Zrotation Yrotation Xrotation
						JOINT Head
						{
							OFFSET 0.000000 1.667000 -0.240000
							CHANNELS 3 Zrotation Yrotation Xrotation
							End Site
							{
								OFFSET 0.000000 0.000000 0.000000
							}
						}
					}
				}
				JOINT LeftShoulder
				{
					OFFSET 0.000000 0.000000 0.000000
					CHANNELS 3 Zrotation Yrotation Xrotation
					JOINT LeftArm
					{
						OFFSET 2.700000 1.550000 -0.730000
						CHANNELS 3 Zrotation Yrotation Xrotation
						JOINT LeftForeArm
						{
							OFFSET 5.450000 0.000000 0.000000
							CHANNELS 3 Zrotation Yrotation Xrotation
							JOINT LeftHand
							{
								OFFSET 3.450000 0.000000 0.000000
								CHANNELS 3 Zrotation Yrotation Xrotation
								JOINT LeftHandIndex1
								{
									OFFSET 0.750000 0.000000 0.000000
									CHANNELS 3 Zrotation Yrotation Xrotation
									End Site
									{
										OFFSET 0.000000 0.000000 0.000000
									}
								}
							}
						}
					}
				}
				JOINT RightShoulder
				{
					OFFSET 0.000000 0.000000 0.000000
					CHANNELS 3 Zrotation Yrotation Xrotation
					JOINT RightArm
					{
						OFFSET -2.700000 1.550000 -0.730000
						CHANNELS 3 Zrotation Yrotation Xrotation
						JOINT RightForeArm
						{
							OFFSET -5.450000 0.000000 0.000000
							CHANNELS 3 Zrotation Yrotation Xrotation
							JOINT RightHand
							{
								OFFSET -3.450000 0.000000 0.000000
								CHANNELS 3 Zrotation Yrotation Xrotation
								JOINT RightHandIndex1
								{
									OFFSET -0.750000 0.000000 0.000000
									CHANNELS 3 Zrotation Yrotation Xrotation
									End Site
									{
										OFFSET 0.000000 0.000000 0.000000
									}
								}
							}
						}
					}
				}
			}
		}
	}
}
MOTION
Frames: 9
Frame Time: 0.016667
0.314210 17.871270 -2.228660 -5.637129 0.688211 -3.580763 -15.047123 12.818465 2.122260 3.057564 -0.804281 -5.692258 -4.531298 6.119793 16.616739 -0.907163 4.883799 3.044621 -0.123140 -0.467160 -0.073070 18.688955 -8.934738 5.267877 0.046040 12.477303 -50.795804 4.623936 -11.600968 56.088350 -0.964153 -8.491671 1.553026 -0.070650 0.643570 0.038460 -4.358706 -2.465046 -8.309002 15.828186 -5.554287 14.476417 -4.392217 -3.089290 4.757896 2.173448 -1.194807 -7.374663 -6.098227 2.861765 45.348040 -6.469260 4.887300 -2.110090 -22.831786 -9.473582 1.350524 -44.180861 -16.989416 -2.600725 -12.765085 -54.894737 3.608592 -4.075888 2.675830 0.620160 0.392050 -0.367720 0.000200 18.245022 8.090749 3.552239 55.402258 6.818623 -4.033731 12.163836 12.552895 0.003248 1.991882 -0.910267 -0.636300 0.551120 0.505920 -0.333460 
0.312120 17.887380 -2.224790 -5.815506 0.405219 -3.760365 -15.041111 12.811751 2.122021 3.183601 -0.723678 -5.244263 -4.531952 6.075965 16.155038 -0.914767 4.851465 3.039484 -0.093490 -0.434450 -0.045910 18.697235 -8.916185 5.295695 0.244944 12.689997 -50.836117 4.501366 -11.556575 56.396666 -0.992455 -8.509864 1.536769 -0.057440 0.603590 0.036390 -4.376483 -2.461680 -8.331834 16.142073 -5.577130 14.758529 -4.415417 -3.019270 4.885558 2.203092 -1.294843 -7.547354 -6.424948 2.962746 46.089180 -6.371020 4.829170 -2.945810 -22.640246 -9.726010 1.472064 -44.472752 -17.119661 -2.723957 -12.057017 -55.237114 3.200644 -4.040959 2.673424 0.644290 0.361720 -0.341150 -0.007450 17.983513 8.449992 3.683358 55.521983 6.940931 -4.007859 11.925095 12.331899 -0.006950 1.996631 -0.904521 -0.624530 0.543090 0.494090 -0.343610 
0.306570 17.916130 -2.218510 -5.806355 -0.192794 -4.172470 -15.049075 12.819729 2.153260 3.196807 -0.539020 -4.308025 -4.651517 6.030789 15.285322 -0.906929 4.799035 3.026917 -0.036540 -0.365740 0.004640 18.688815 -8.881520 5.324956 0.243665 12.904346 -50.781117 4.511472 -11.556589 56.782533 -1.043167 -8.528239 1.508221 -0.032810 0.522610 0.030140 -4.347005 -2.511662 -8.390449 16.066502 -5.469205 15.435987 -4.179079 -2.827020 5.098459 2.197383 -1.499355 -7.942915 -7.168105 3.251820 47.814586 -6.103840 4.758440 -4.457920 -22.273082 -10.234865 1.748705 -45.003548 -17.260751 -3.032482 -10.745229 -55.858309 2.416002 -3.966125 2.672997 0.684810 0.298250 -0.284180 -0.018660 17.662678 9.268848 3.964046 55.669840 7.145543 -3.962225 11.342633 11.842106 -0.029451 2.015815 -0.893581 -0.595580 0.526250 0.465170 -0.356870 
0.300030 17.944930 -2.206470 -5.646923 -0.873837 -4.530369 -15.071013 12.827952 2.202812 3.048848 -0.305975 -3.239027 -4.765006 5.942576 14.087931 -0.916825 4.758447 3.025608 0.005940 -0.317640 0.042850 18.669399 -8.831780 5.346939 0.076109 13.041318 -50.833072 4.419645 -11.535878 57.230841 -1.088823 -8.561413 1.488262 -0.011590 0.467000 0.019630 -4.281852 -2.598426 -8.454752 15.709594 -5.282107 16.107332 -3.748847 -2.604407 5.297424 2.187910 -1.668167 -8.331553 -7.864426 3.574851 49.520838 -5.982560 4.768840 -5.908900 -21.868823 -10.708600 1.996419 -45.608518 -17.463452 -3.282601 -9.221603 -56.402747 1.488342 -3.908198 2.643422 0.735520 0.250150 -0.239550 -0.024770 17.342651 10.052019 4.238600 55.690151 7.302526 -3.872826 10.803367 11.073189 -0.044850 2.019622 -0.868132 -0.589430 0.532480 0.448490 -0.374580 
0.289810 17.973750 -2.195400 -5.525915 -1.423047 -4.916617 -15.097311 12.853393 2.265485 2.973531 -0.089607 -2.200014 -4.825235 5.842773 12.867471 -0.938007 4.744187 3.016420 0.023730 -0.297550 0.069520 18.639848 -8.801186 5.344533 0.161665 13.086716 -50.647012 4.127239 -11.243183 57.030351 -1.093186 -8.447318 1.512621 -0.003730 0.428290 0.015700 -4.196007 -2.692438 -8.516579 15.250964 -5.120537 16.833411 -3.290689 -2.425165 5.501246 2.268473 -1.566526 -8.740994 -7.991484 3.716594 51.459931 -6.181900 4.959560 -7.215450 -21.626650 -11.411781 2.276809 -45.840495 -17.657210 -3.559498 -7.579726 -56.800264 0.499828 -3.873190 2.595892 0.789840 0.217010 -0.201520 -0.041020 17.040865 10.857333 4.533832 55.797325 7.463767 -3.847707 10.139699 10.595580 -0.044308 2.013889 -0.829580 -0.594740 0.544240 0.452130 -0.394720 
0.277970 17.994310 -2.179480 -5.374319 -1.861349 -5.273695 -15.121548 12.902823 2.343445 2.920572 0.087065 -1.256532 -4.874096 5.751143 11.785476 -0.934770 4.727899 3.004799 0.075760 -0.245890 0.126570 18.602997 -8.820364 5.276483 0.248024 12.832880 -49.932539 3.966936 -10.879895 56.056885 -1.078721 -8.190403 1.577166 0.015530 0.367050 0.022190 -4.103771 -2.781366 -8.544710 14.737809 -4.997484 17.482883 -2.844557 -2.331527 5.743699 2.299437 -1.539619 -9.062389 -8.279730 3.815658 53.191056 -6.280160 4.988380 -8.843780 -21.391142 -11.904515 2.481141 -45.972473 -17.889176 -3.768666 -6.334349 -57.246121 -0.266606 -3.822093 2.574835 0.836230 0.171280 -0.146390 -0.047110 16.845939 11.481266 4.748252 55.741577 7.638352 -3.828772 9.725797 10.308095 -0.029461 2.018154 -0.810320 -0.575620 0.540430 0.427060 -0.412240 
0.265240 18.009100 -2.161680 -5.104584 -2.385741 -5.686963 -15.141569 12.982358 2.439603 2.786350 0.258159 -0.418523 -4.992754 5.719611 11.010027 -0.926167 4.730457 2.987022 0.123780 -0.192560 0.173990 18.560161 -8.888960 5.145861 0.337400 12.326933 -48.657348 3.724075 -10.331463 54.411894 -1.030849 -7.791604 1.686517 0.036680 0.311910 0.016080 -4.007980 -2.875729 -8.542887 14.163338 -4.879520 18.172490 -2.504259 -2.254323 5.960251 2.252633 -1.685264 -9.388558 -8.964585 4.276461 54.919147 -5.920150 5.003800 -10.478860 -21.309594 -12.366237 2.646197 -45.806719 -18.028272 -4.056205 -4.910176 -57.644214 -1.119074 -3.764782 2.549945 0.880660 0.120560 -0.096670 -0.051240 16.942497 12.162311 4.997371 55.385639 7.742397 -3.868986 9.539595 10.284477 -0.001537 2.023243 -0.786766 -0.561930 0.546460 0.403870 -0.424730 
0.256030 18.006200 -2.138720 -5.073566 -2.532719 -5.849282 -15.136705 13.025668 2.511860 2.825594 0.381555 0.382721 -5.083419 5.666549 10.121576 -0.912584 4.734007 2.974147 0.162300 -0.151470 0.207950 18.549502 -8.959833 5.018910 0.292019 11.728155 -47.839384 3.685913 -9.989089 52.692615 -0.975630 -7.426187 1.788411 0.052960 0.270350 0.012620 -3.999392 -2.904229 -8.509717 14.285563 -5.042472 18.388139 -2.616651 -2.395931 6.180312 2.207121 -1.920982 -9.596577 -9.788846 4.693923 55.955869 -5.556080 4.879680 -11.599980 -21.129679 -12.634405 2.740820 -45.643300 -18.294215 -4.164759 -3.497263 -57.881510 -1.909829 -3.719796 2.538726 0.907200 0.082520 -0.063040 -0.052120 16.860950 12.522494 5.174759 55.387698 7.704470 -4.004389 9.427761 10.514778 0.009439 2.026659 -0.777611 -0.547320 0.545410 0.384530 -0.431460 
0.245120 17.990370 -2.113540 -4.938985 -2.205466 -5.996967 -15.150924 13.084467 2.596974 2.828965 0.508948 1.188525 -5.144005 5.590585 9.057924 -0.896044 4.741247 2.962782 0.185750 -0.125110 0.233290 18.520490 -9.016900 4.879761 0.090808 10.951436 -47.275792 3.479189 -9.621198 50.975881 -0.910508 -7.061474 1.886361 0.062560 0.236780 0.010030 -3.939636 -2.998548 -8.489177 13.980667 -5.222020 18.578308 -2.461228 -2.642227 6.341840 2.150694 -1.957096 -9.750201 -10.175314 4.892072 56.718186 -5.237000 4.810980 -12.500320 -21.054637 -12.870533 2.794460 -45.458975 -18.645403 -4.191158 -2.288016 -58.067954 -2.570366 -3.685634 2.529277 0.927460 0.052170 -0.036570 -0.058670 16.951953 12.673938 5.334770 55.172190 7.347224 -4.365344 9.618067 11.286974 0.028153 2.026517 -0.768104 -0.536920 0.541640 0.372660 -0.437190 
